<?xml version="1.0" encoding="UTF-8" standalone="no"?>
<svg width="46px" height="46px" viewBox="0 0 46 46" version="1.1" xmlns="http://www.w3.org/2000/svg" xmlns:xlink="http://www.w3.org/1999/xlink">
    <!-- Generator: Sketch 40.1 (33804) - http://www.bohemiancoding.com/sketch -->
    <title>phone-button</title>
    <desc>Created with Sketch.</desc>
    <defs></defs>
    <g id="Page-1" stroke="none" stroke-width="1" fill="none" fill-rule="evenodd">
        <g id="Got-Movers-PPC---Menu---Mobile" transform="translate(-348.000000, -16.000000)">
            <g id="phone-button" transform="translate(348.000000, 16.000000)">
                <g id="Group-4">
                    <g>
                        <path d="M23,46 C35.7025492,46 46,35.7025492 46,23 C46,10.2974508 35.7025492,0 23,0 C10.2974508,0 0,10.2974508 0,23 C0,35.7025492 10.2974508,46 23,46 Z" id="Oval-8" fill="#0BBE1C"></path>
                        <path d="M33.7470238,28.75656 C33.7470238,29.0164665 33.6988937,29.3557837 33.6026321,29.7745218 C33.5063704,30.1932599 33.4052972,30.5229511 33.2994094,30.7636052 C33.09726,31.2449134 32.5100728,31.7550925 31.5378302,32.2941577 C30.6329707,32.7850921 29.7377509,33.0305556 28.8521438,33.0305556 C28.5922374,33.0305556 28.3395543,33.01371 28.0940871,32.9800184 C27.84862,32.9463269 27.5718719,32.8861642 27.2638346,32.7995288 C26.9557974,32.7128933 26.7271794,32.6431046 26.5779739,32.5901607 C26.4287683,32.5372168 26.1616463,32.4385501 25.7765997,32.2941577 C25.3915531,32.1497652 25.1557156,32.063131 25.0690802,32.0342525 C24.1257161,31.6973368 23.2834393,31.297857 22.5422247,30.8358011 C21.3100757,30.0753341 20.0370346,29.0381305 18.7230632,27.7241591 C17.4090917,26.4101877 16.3718881,25.1371465 15.6114211,23.9049975 C15.1493652,23.1637829 14.7498854,22.3215061 14.4129697,21.3781421 C14.3840912,21.2915066 14.297457,21.0556691 14.1530645,20.6706225 C14.0086721,20.285576 13.9100054,20.0184539 13.8570615,19.8692484 C13.8041176,19.7200428 13.7343289,19.4914248 13.6476935,19.1833876 C13.561058,18.8753503 13.5008954,18.5986023 13.4672038,18.3531351 C13.4335122,18.1076679 13.4166667,17.8549849 13.4166667,17.5950784 C13.4166667,16.7094713 13.6621302,15.8142515 14.1530645,14.9093921 C14.6921297,13.9371495 15.2023088,13.3499623 15.683617,13.1478128 C15.9242711,13.041925 16.2539623,12.9408518 16.6727004,12.8445902 C17.0914386,12.7483285 17.4307558,12.7001984 17.6906622,12.7001984 C17.8254285,12.7001984 17.9265017,12.7146374 17.9938849,12.7435159 C18.1671558,12.8012729 18.4222453,13.1670617 18.7591611,13.8408932 C18.8650489,14.0237903 19.0094392,14.2836928 19.1923363,14.6206086 C19.3752334,14.9575243 19.5436888,15.2631504 19.6977074,15.5374961 C19.851726,15.8118418 20.0009293,16.0693378 20.1453218,16.3099919 C20.1742003,16.3484966 20.258428,16.4688218 20.3980073,16.6709713 C20.5375867,16.8731207 20.6410664,17.0439826 20.7084496,17.183562 C20.7758327,17.3231414 20.8095238,17.4603121 20.8095238,17.5950784 C20.8095238,17.7876017 20.672353,18.0282522 20.3980073,18.3170371 C20.1236617,18.6058221 19.8252551,18.8705376 19.5027786,19.1111917 C19.1803021,19.3518458 18.8818954,19.6069353 18.6075498,19.8764679 C18.3332041,20.1460005 18.1960333,20.367399 18.1960333,20.54067 C18.1960333,20.6273054 18.2200983,20.7355982 18.2682292,20.8655514 C18.31636,20.9955046 18.3572706,21.0941713 18.3909621,21.1615544 C18.4246537,21.2289376 18.4920359,21.3444498 18.5931106,21.5080946 C18.6941853,21.6717394 18.7495349,21.7631866 18.7591611,21.7824389 C19.4907496,23.1012234 20.3282133,24.2322807 21.2715774,25.1756448 C22.2149415,26.1190089 23.3459988,26.9564727 24.6647833,27.6880611 C24.6840356,27.6976873 24.7754828,27.7530369 24.9391276,27.8541116 C25.1027724,27.9551864 25.2182846,28.0225685 25.2856678,28.0562601 C25.3530509,28.0899517 25.4517176,28.1308622 25.5816709,28.1789931 C25.7116241,28.2271239 25.8199168,28.2511889 25.9065523,28.2511889 C26.0798232,28.2511889 26.3012217,28.1140181 26.5707543,27.8396725 C26.8402869,27.5653268 27.0953764,27.2669202 27.3360305,26.9444437 C27.5766846,26.6219672 27.8414002,26.3235606 28.1301851,26.0492149 C28.41897,25.7748692 28.6596205,25.6376984 28.8521438,25.6376984 C28.9869101,25.6376984 29.1240809,25.6713895 29.2636602,25.7387726 C29.4032396,25.8061558 29.5741015,25.9096355 29.7762509,26.0492149 C29.9784004,26.1887943 30.0987256,26.2730219 30.1372303,26.3019004 C30.3778844,26.4462929 30.6353804,26.5954962 30.9097261,26.7495148 C31.1840718,26.9035334 31.4896979,27.0719888 31.8266137,27.2548859 C32.1635294,27.437783 32.4234319,27.5821733 32.6063291,27.6880611 C33.2801605,28.0249769 33.6459493,28.2800664 33.7037063,28.4533374 C33.7325848,28.5207205 33.7470238,28.6217937 33.7470238,28.75656 L33.7470238,28.75656 Z" id="" fill="#FFFFFF"></path>
                    </g>
                </g>
            </g>
        </g>
    </g>
</svg>