<?xml version="1.0" encoding="UTF-8" standalone="no"?>
<svg width="14px" height="16px" viewBox="0 0 14 16" version="1.1" xmlns="http://www.w3.org/2000/svg" xmlns:xlink="http://www.w3.org/1999/xlink">
    <!-- Generator: Sketch 40.1 (33804) - http://www.bohemiancoding.com/sketch -->
    <title>x</title>
    <desc>Created with Sketch.</desc>
    <defs></defs>
    <g id="Page-1" stroke="none" stroke-width="1" fill="none" fill-rule="evenodd">
        <g id="Got-Movers-PPC---Menu---Mobile" transform="translate(-380.000000, -755.000000)" fill="#FFFFFF">
            <path d="M380,769.76 C380,770.33 380.45,770.81 381.05,770.81 C381.47,770.81 381.77,770.57 382.04,770.24 L386.72,764.3 L391.43,770.27 C391.7,770.6 392,770.81 392.45,770.81 C393.05,770.81 393.53,770.36 393.53,769.73 C393.53,769.43 393.41,769.16 393.2,768.89 L388.16,762.71 L392.99,756.8 C393.17,756.59 393.29,756.35 393.29,756.05 C393.29,755.45 392.84,755 392.24,755 C391.82,755 391.52,755.24 391.25,755.57 L386.81,761.21 L382.34,755.54 C382.07,755.21 381.77,755 381.32,755 C380.72,755 380.24,755.42 380.24,756.08 C380.24,756.38 380.36,756.65 380.6,756.92 L385.37,762.77 L380.3,769.01 C380.09,769.22 380,769.46 380,769.76 L380,769.76 Z" id="x"></path>
        </g>
    </g>
</svg>